<svg width="28" height="28" viewBox="0 0 28 28" fill="none" xmlns="http://www.w3.org/2000/svg">
<circle cx="14" cy="14" r="14" fill="#E9EEFB"/>
<path d="M14 12.0556C13.4843 12.0556 12.9898 12.2605 12.6251 12.6251C12.2605 12.9898 12.0556 13.4843 12.0556 14C12.0556 14.5157 12.2605 15.0103 12.6251 15.375C12.9898 15.7396 13.4843 15.9445 14 15.9445C14.5157 15.9445 15.0103 15.7396 15.375 15.375C15.7396 15.0103 15.9445 14.5157 15.9445 14C15.9445 13.4843 15.7396 12.9898 15.375 12.6251C15.0103 12.2605 14.5157 12.0556 14 12.0556ZM14 10.7593C14.8595 10.7593 15.6838 11.1007 16.2916 11.7085C16.8993 12.3162 17.2408 13.1405 17.2408 14C17.2408 14.8595 16.8993 15.6838 16.2916 16.2916C15.6838 16.8993 14.8595 17.2408 14 17.2408C13.1405 17.2408 12.3162 16.8993 11.7085 16.2916C11.1007 15.6838 10.7593 14.8595 10.7593 14C10.7593 13.1405 11.1007 12.3162 11.7085 11.7085C12.3162 11.1007 13.1405 10.7593 14 10.7593ZM18.213 10.5973C18.213 10.8121 18.1276 11.0182 17.9757 11.1701C17.8238 11.3221 17.6177 11.4074 17.4028 11.4074C17.1879 11.4074 16.9819 11.3221 16.8299 11.1701C16.678 11.0182 16.5926 10.8121 16.5926 10.5973C16.5926 10.3824 16.678 10.1763 16.8299 10.0244C16.9819 9.87243 17.1879 9.78707 17.4028 9.78707C17.6177 9.78707 17.8238 9.87243 17.9757 10.0244C18.1276 10.1763 18.213 10.3824 18.213 10.5973ZM14 8.81485C12.3965 8.81485 12.1347 8.81939 11.3886 8.85244C10.8805 8.87643 10.5396 8.94448 10.2233 9.06763C9.94198 9.17652 9.73911 9.3068 9.52328 9.52328C9.32041 9.71928 9.16443 9.95856 9.06698 10.2233C8.94383 10.5409 8.87578 10.8811 8.85244 11.3886C8.81874 12.1042 8.81485 12.3544 8.81485 14C8.81485 15.6036 8.81939 15.8654 8.85244 16.6114C8.87643 17.1189 8.94448 17.4605 9.06698 17.7761C9.17717 18.0581 9.3068 18.261 9.52198 18.4761C9.74041 18.6939 9.94328 18.8242 10.222 18.9318C10.5422 19.0556 10.8831 19.1243 11.3886 19.1476C12.1042 19.1813 12.3544 19.1852 14 19.1852C15.6036 19.1852 15.8654 19.1807 16.6114 19.1476C17.1183 19.1236 17.4599 19.0556 17.7761 18.9331C18.0568 18.8236 18.261 18.6933 18.4761 18.4781C18.6946 18.2597 18.8249 18.0568 18.9324 17.7781C19.0556 17.4586 19.1243 17.117 19.1476 16.6114C19.1813 15.8959 19.1852 15.6457 19.1852 14C19.1852 12.3965 19.1807 12.1347 19.1476 11.3886C19.1236 10.8818 19.0556 10.5396 18.9324 10.2233C18.8348 9.95883 18.6791 9.71964 18.4768 9.52328C18.2809 9.32031 18.0416 9.16431 17.7768 9.06698C17.4592 8.94383 17.1183 8.87578 16.6114 8.85244C15.8959 8.81874 15.6457 8.81485 14 8.81485ZM14 7.51855C15.7611 7.51855 15.9808 7.52504 16.6717 7.55744C17.362 7.58985 17.8319 7.69809 18.2454 7.85883C18.6732 8.02346 19.0336 8.24643 19.3939 8.60615C19.7235 8.93015 19.9785 9.32208 20.1412 9.75467C20.3013 10.1675 20.4102 10.6381 20.4426 11.3284C20.4731 12.0193 20.4815 12.239 20.4815 14C20.4815 15.7611 20.475 15.9808 20.4426 16.6717C20.4102 17.362 20.3013 17.8319 20.1412 18.2454C19.979 18.6782 19.7239 19.0703 19.3939 19.3939C19.0698 19.7234 18.6779 19.9784 18.2454 20.1412C17.8325 20.3013 17.362 20.4102 16.6717 20.4426C15.9808 20.4731 15.7611 20.4815 14 20.4815C12.239 20.4815 12.0193 20.475 11.3284 20.4426C10.6381 20.4102 10.1682 20.3013 9.75467 20.1412C9.32191 19.9789 8.92991 19.7238 8.60615 19.3939C8.2765 19.07 8.02147 18.678 7.85883 18.2454C7.69809 17.8325 7.58985 17.362 7.55744 16.6717C7.52698 15.9808 7.51855 15.7611 7.51855 14C7.51855 12.239 7.52504 12.0193 7.55744 11.3284C7.58985 10.6374 7.69809 10.1682 7.85883 9.75467C8.02102 9.32182 8.27611 8.92978 8.60615 8.60615C8.93001 8.27639 9.32198 8.02134 9.75467 7.85883C10.1682 7.69809 10.6374 7.58985 11.3284 7.55744C12.0193 7.52698 12.239 7.51855 14 7.51855Z" fill="#4F61D1"/>
</svg>
