<svg width="28" height="28" viewBox="0 0 28 28" fill="none" xmlns="http://www.w3.org/2000/svg">
<circle cx="14" cy="14" r="14" fill="#E9EEFB"/>
<path d="M8.5934 7.94507H18.9667C19.1387 7.94507 19.3036 8.01337 19.4252 8.13496C19.5468 8.25655 19.6151 8.42145 19.6151 8.5934V18.9667C19.6151 19.1387 19.5468 19.3036 19.4252 19.4252C19.3036 19.5468 19.1387 19.6151 18.9667 19.6151H8.5934C8.42145 19.6151 8.25655 19.5468 8.13496 19.4252C8.01337 19.3036 7.94507 19.1387 7.94507 18.9667V8.5934C7.94507 8.42145 8.01337 8.25655 8.13496 8.13496C8.25655 8.01337 8.42145 7.94507 8.5934 7.94507ZM9.24173 9.24173V18.3184H18.3184V9.24173H9.24173ZM10.8626 11.8351C10.6046 11.8351 10.3573 11.7326 10.1749 11.5502C9.99253 11.3679 9.89007 11.1205 9.89007 10.8626C9.89007 10.6046 9.99253 10.3573 10.1749 10.1749C10.3573 9.99253 10.6046 9.89007 10.8626 9.89007C11.1205 9.89007 11.3679 9.99253 11.5502 10.1749C11.7326 10.3573 11.8351 10.6046 11.8351 10.8626C11.8351 11.1205 11.7326 11.3679 11.5502 11.5502C11.3679 11.7326 11.1205 11.8351 10.8626 11.8351ZM10.2142 12.4834H11.5109V17.3459H10.2142V12.4834ZM13.7801 12.7622C14.1587 12.3959 14.6009 12.1592 15.0767 12.1592C16.4194 12.1592 17.3459 13.2478 17.3459 14.5905V17.3459H16.0492V14.5905C16.0492 14.2896 15.9297 14.001 15.7169 13.7882C15.5041 13.5754 15.2156 13.4559 14.9147 13.4559C14.6137 13.4559 14.3252 13.5754 14.1124 13.7882C13.8996 14.001 13.7801 14.2896 13.7801 14.5905V17.3459H12.4834V12.4834H13.7801V12.7622Z" fill="#4F61D1"/>
</svg>
