<svg width="28" height="28" viewBox="0 0 28 28" fill="none" xmlns="http://www.w3.org/2000/svg">
<circle cx="14" cy="14" r="14" fill="#E9EEFB"/>
<path d="M16.1387 9.81935C15.6461 9.81926 15.1731 10.0126 14.8216 10.3577C14.4701 10.7028 14.2681 11.1721 14.2591 11.6646L14.2409 12.6855C14.2399 12.7403 14.2272 12.7942 14.2039 12.8438C14.1805 12.8934 14.1469 12.9375 14.1052 12.9732C14.0636 13.0088 14.0149 13.0353 13.9624 13.0509C13.9098 13.0664 13.8545 13.0706 13.8002 13.0633L12.7884 12.9259C11.4571 12.7444 10.1816 12.1313 8.95789 11.1118C8.57029 13.2571 9.32733 14.7433 11.1506 15.8899L12.2829 16.6016C12.3367 16.6354 12.3814 16.6819 12.4131 16.7369C12.4447 16.792 12.4625 16.854 12.4646 16.9175C12.4668 16.981 12.4534 17.0441 12.4255 17.1012C12.3977 17.1583 12.3563 17.2078 12.3049 17.2452L11.2731 17.999C11.8869 18.0372 12.4696 18.01 12.9531 17.9141C16.011 17.3035 18.0443 15.0026 18.0443 11.207C18.0443 10.8972 17.3884 9.81935 16.1387 9.81935ZM12.9628 11.6406C12.9741 11.0159 13.1695 10.4083 13.5245 9.89403C13.8794 9.37976 14.3782 8.98163 14.9584 8.74949C15.5386 8.51736 16.1743 8.46153 16.7861 8.589C17.3978 8.71647 17.9583 9.02157 18.3975 9.46611C18.8583 9.46287 19.2505 9.57953 20.1274 9.04805C19.9103 10.111 19.8033 10.5725 19.3406 11.207C19.3406 16.1602 16.2962 18.5687 13.2071 19.1851C11.089 19.6077 8.009 18.9135 7.12622 17.9918C7.57604 17.9568 9.40381 17.7605 10.4603 16.9872C9.5665 16.398 6.00881 14.3045 8.34668 8.67601C9.444 9.9574 10.5569 10.8298 11.6846 11.2926C12.4352 11.6005 12.6193 11.594 12.9634 11.6413L12.9628 11.6406Z" fill="#4F61D1"/>
</svg>
